<svg xmlns="http://www.w3.org/2000/svg" xmlns:xlink="http://www.w3.org/1999/xlink" width="350" zoomAndPan="magnify" viewBox="0 0 262.5 374.999991" height="500" preserveAspectRatio="xMidYMid meet" version="1.0"><defs><clipPath id="4b3ade5209"><path d="M 0 0.355469 L 262 0.355469 L 262 374.640625 L 0 374.640625 Z M 0 0.355469 " clip-rule="nonzero"/></clipPath><clipPath id="e8e8e880c9"><path d="M 31.816406 38.050781 L 230.683594 38.050781 L 230.683594 236.917969 L 31.816406 236.917969 Z M 31.816406 38.050781 " clip-rule="nonzero"/></clipPath><clipPath id="d2aaf1e3f6"><path d="M 131.25 38.050781 C 76.335938 38.050781 31.816406 82.570312 31.816406 137.484375 C 31.816406 192.398438 76.335938 236.917969 131.25 236.917969 C 186.164062 236.917969 230.683594 192.398438 230.683594 137.484375 C 230.683594 82.570312 186.164062 38.050781 131.25 38.050781 " clip-rule="nonzero"/></clipPath><clipPath id="ab360bddc1"><path d="M 19 18 L 244.109375 18 L 244.109375 243.417969 L 19 243.417969 Z M 19 18 " clip-rule="nonzero"/></clipPath><clipPath id="e201bea13e"><path d="M 62.042969 61.351562 L 200.457031 61.351562 L 200.457031 199.765625 L 62.042969 199.765625 Z M 62.042969 61.351562 " clip-rule="nonzero"/></clipPath><clipPath id="71f876536e"><path d="M 131.25 61.351562 C 93.027344 61.351562 62.042969 92.335938 62.042969 130.558594 C 62.042969 168.78125 93.027344 199.765625 131.25 199.765625 C 169.472656 199.765625 200.457031 168.78125 200.457031 130.558594 C 200.457031 92.335938 169.472656 61.351562 131.25 61.351562 " clip-rule="nonzero"/></clipPath></defs><g clip-path="url(#4b3ade5209)"><path fill="#00d06e" d="M 131.121094 0.359375 C 58.722656 0.359375 0 59.136719 0 131.605469 C 0 230.039062 131.121094 375.347656 131.121094 375.347656 C 131.121094 375.347656 262.246094 230.039062 262.246094 131.605469 C 262.246094 59.136719 203.519531 0.359375 131.121094 0.359375 Z M 131.121094 178.476562 C 105.273438 178.476562 84.292969 157.480469 84.292969 131.605469 C 84.292969 105.730469 105.273438 84.730469 131.121094 84.730469 C 156.972656 84.730469 177.953125 105.730469 177.953125 131.605469 C 177.953125 157.480469 156.972656 178.476562 131.121094 178.476562 Z M 131.121094 178.476562 " fill-opacity="1" fill-rule="nonzero"/></g><g clip-path="url(#e8e8e880c9)"><g clip-path="url(#d2aaf1e3f6)"><path fill="#00d06e" d="M 31.816406 38.050781 L 230.683594 38.050781 L 230.683594 236.917969 L 31.816406 236.917969 Z M 31.816406 38.050781 " fill-opacity="1" fill-rule="nonzero"/></g></g><g clip-path="url(#ab360bddc1)"><path fill="#ffffff" d="M 131.0625 18.253906 C 130.429688 18.324219 129.835938 18.503906 129.273438 18.796875 C 128.710938 19.089844 128.222656 19.472656 127.804688 19.949219 C 127.386719 20.425781 127.070312 20.960938 126.851562 21.558594 C 126.636719 22.152344 126.535156 22.765625 126.546875 23.402344 L 126.546875 42.640625 C 81.730469 45.15625 45.726562 80.917969 42.777344 125.617188 L 24.328125 125.617188 C 24.171875 125.609375 24.011719 125.609375 23.855469 125.617188 C 23.523438 125.632812 23.195312 125.683594 22.871094 125.761719 C 22.546875 125.84375 22.234375 125.953125 21.933594 126.09375 C 21.632812 126.238281 21.347656 126.40625 21.078125 126.605469 C 20.8125 126.800781 20.566406 127.023438 20.339844 127.269531 C 20.117188 127.515625 19.917969 127.78125 19.746094 128.066406 C 19.574219 128.351562 19.433594 128.652344 19.320312 128.964844 C 19.207031 129.28125 19.125 129.601562 19.074219 129.929688 C 19.027344 130.257812 19.007812 130.589844 19.023438 130.921875 C 19.039062 131.257812 19.089844 131.585938 19.167969 131.90625 C 19.25 132.230469 19.359375 132.542969 19.5 132.84375 C 19.644531 133.144531 19.8125 133.429688 20.011719 133.699219 C 20.207031 133.964844 20.429688 134.210938 20.675781 134.4375 C 20.921875 134.660156 21.1875 134.859375 21.472656 135.03125 C 21.761719 135.203125 22.058594 135.34375 22.371094 135.457031 C 22.6875 135.570312 23.007812 135.652344 23.335938 135.703125 C 23.667969 135.75 23.996094 135.769531 24.328125 135.753906 L 42.699219 135.753906 C 44.8125 181.265625 81.148438 217.925781 126.546875 220.472656 L 126.546875 237.972656 C 126.542969 238.308594 126.570312 238.640625 126.632812 238.96875 C 126.695312 239.300781 126.789062 239.621094 126.914062 239.933594 C 127.039062 240.242188 127.191406 240.539062 127.375 240.820312 C 127.5625 241.101562 127.769531 241.363281 128.007812 241.601562 C 128.242188 241.839844 128.5 242.054688 128.777344 242.242188 C 129.054688 242.429688 129.347656 242.589844 129.660156 242.71875 C 129.96875 242.847656 130.289062 242.945312 130.617188 243.011719 C 130.945312 243.078125 131.28125 243.109375 131.613281 243.109375 C 131.949219 243.109375 132.285156 243.078125 132.613281 243.011719 C 132.941406 242.945312 133.261719 242.847656 133.570312 242.71875 C 133.878906 242.589844 134.175781 242.429688 134.453125 242.242188 C 134.730469 242.054688 134.988281 241.839844 135.222656 241.601562 C 135.460938 241.363281 135.667969 241.101562 135.855469 240.820312 C 136.039062 240.539062 136.191406 240.242188 136.316406 239.933594 C 136.441406 239.621094 136.535156 239.300781 136.597656 238.96875 C 136.660156 238.640625 136.6875 238.308594 136.683594 237.972656 L 136.683594 220.472656 C 182.082031 217.925781 218.417969 181.265625 220.53125 135.753906 L 238.902344 135.753906 C 239.234375 135.757812 239.570312 135.730469 239.898438 135.667969 C 240.230469 135.605469 240.550781 135.511719 240.863281 135.386719 C 241.171875 135.261719 241.46875 135.109375 241.75 134.925781 C 242.03125 134.738281 242.292969 134.53125 242.53125 134.292969 C 242.769531 134.058594 242.984375 133.800781 243.171875 133.523438 C 243.359375 133.246094 243.519531 132.953125 243.648438 132.640625 C 243.777344 132.332031 243.875 132.011719 243.941406 131.683594 C 244.007812 131.355469 244.039062 131.023438 244.039062 130.6875 C 244.039062 130.351562 244.007812 130.015625 243.941406 129.6875 C 243.875 129.359375 243.777344 129.039062 243.648438 128.730469 C 243.519531 128.421875 243.359375 128.125 243.171875 127.847656 C 242.984375 127.570312 242.769531 127.3125 242.53125 127.078125 C 242.292969 126.839844 242.03125 126.632812 241.75 126.445312 C 241.46875 126.261719 241.171875 126.109375 240.863281 125.984375 C 240.550781 125.859375 240.230469 125.765625 239.898438 125.703125 C 239.570312 125.640625 239.234375 125.613281 238.902344 125.617188 L 220.453125 125.617188 C 217.503906 80.917969 181.5 45.15625 136.683594 42.640625 L 136.683594 23.402344 C 136.691406 23.039062 136.660156 22.683594 136.589844 22.328125 C 136.523438 21.972656 136.417969 21.632812 136.277344 21.300781 C 136.132812 20.96875 135.957031 20.65625 135.75 20.359375 C 135.542969 20.066406 135.304688 19.796875 135.039062 19.554688 C 134.773438 19.308594 134.484375 19.097656 134.171875 18.914062 C 133.859375 18.734375 133.53125 18.585938 133.191406 18.472656 C 132.847656 18.363281 132.496094 18.289062 132.136719 18.25 C 131.777344 18.214844 131.417969 18.214844 131.0625 18.253906 Z M 126.546875 52.773438 L 126.546875 72.570312 C 126.542969 72.90625 126.570312 73.238281 126.632812 73.570312 C 126.695312 73.898438 126.789062 74.21875 126.914062 74.53125 C 127.039062 74.84375 127.191406 75.136719 127.375 75.417969 C 127.5625 75.699219 127.769531 75.960938 128.007812 76.199219 C 128.242188 76.4375 128.5 76.652344 128.777344 76.839844 C 129.054688 77.027344 129.347656 77.1875 129.660156 77.316406 C 129.96875 77.445312 130.289062 77.542969 130.617188 77.609375 C 130.945312 77.675781 131.28125 77.710938 131.613281 77.710938 C 131.949219 77.710938 132.285156 77.675781 132.613281 77.609375 C 132.941406 77.542969 133.261719 77.445312 133.570312 77.316406 C 133.878906 77.1875 134.175781 77.027344 134.453125 76.839844 C 134.730469 76.652344 134.988281 76.4375 135.222656 76.199219 C 135.460938 75.960938 135.667969 75.699219 135.855469 75.417969 C 136.039062 75.136719 136.191406 74.84375 136.316406 74.53125 C 136.441406 74.21875 136.535156 73.898438 136.597656 73.570312 C 136.660156 73.238281 136.6875 72.90625 136.683594 72.570312 L 136.683594 52.773438 C 175.976562 55.269531 207.402344 86.441406 210.316406 125.617188 L 189.652344 125.617188 C 189.492188 125.609375 189.335938 125.609375 189.175781 125.617188 C 188.84375 125.632812 188.515625 125.683594 188.191406 125.761719 C 187.871094 125.84375 187.558594 125.953125 187.257812 126.09375 C 186.953125 126.238281 186.667969 126.40625 186.402344 126.605469 C 186.132812 126.800781 185.886719 127.023438 185.664062 127.269531 C 185.4375 127.515625 185.242188 127.78125 185.070312 128.066406 C 184.898438 128.351562 184.753906 128.652344 184.640625 128.964844 C 184.527344 129.28125 184.449219 129.601562 184.398438 129.929688 C 184.347656 130.257812 184.332031 130.589844 184.347656 130.921875 C 184.363281 131.257812 184.410156 131.585938 184.492188 131.90625 C 184.570312 132.230469 184.683594 132.542969 184.824219 132.84375 C 184.964844 133.144531 185.136719 133.429688 185.332031 133.699219 C 185.53125 133.964844 185.753906 134.210938 186 134.4375 C 186.246094 134.660156 186.511719 134.859375 186.796875 135.03125 C 187.082031 135.203125 187.382812 135.34375 187.695312 135.457031 C 188.007812 135.570312 188.328125 135.652344 188.660156 135.703125 C 188.988281 135.75 189.320312 135.769531 189.652344 135.753906 L 210.476562 135.753906 C 208.375 175.746094 176.558594 207.804688 136.683594 210.339844 L 136.683594 188.722656 C 136.6875 188.382812 136.660156 188.046875 136.597656 187.714844 C 136.535156 187.378906 136.441406 187.054688 136.3125 186.742188 C 136.183594 186.425781 136.027344 186.128906 135.839844 185.84375 C 135.652344 185.5625 135.4375 185.300781 135.199219 185.058594 C 134.957031 184.820312 134.695312 184.605469 134.414062 184.417969 C 134.132812 184.230469 133.832031 184.074219 133.519531 183.945312 C 133.203125 183.820312 132.878906 183.722656 132.546875 183.660156 C 132.210938 183.597656 131.875 183.570312 131.535156 183.578125 C 131.203125 183.582031 130.875 183.617188 130.550781 183.6875 C 130.222656 183.757812 129.90625 183.859375 129.601562 183.992188 C 129.296875 184.125 129.007812 184.285156 128.734375 184.472656 C 128.460938 184.664062 128.207031 184.878906 127.976562 185.117188 C 127.746094 185.355469 127.539062 185.613281 127.359375 185.894531 C 127.175781 186.171875 127.027344 186.46875 126.902344 186.777344 C 126.78125 187.085938 126.691406 187.40625 126.628906 187.734375 C 126.570312 188.058594 126.542969 188.390625 126.546875 188.722656 L 126.546875 210.339844 C 86.671875 207.804688 54.855469 175.746094 52.753906 135.753906 L 73.578125 135.753906 C 73.914062 135.757812 74.246094 135.730469 74.578125 135.667969 C 74.90625 135.605469 75.226562 135.511719 75.539062 135.386719 C 75.851562 135.261719 76.148438 135.109375 76.429688 134.925781 C 76.707031 134.738281 76.96875 134.53125 77.207031 134.292969 C 77.445312 134.058594 77.660156 133.800781 77.847656 133.523438 C 78.035156 133.246094 78.195312 132.953125 78.324219 132.640625 C 78.453125 132.332031 78.550781 132.011719 78.617188 131.683594 C 78.683594 131.355469 78.71875 131.023438 78.71875 130.6875 C 78.71875 130.351562 78.683594 130.015625 78.617188 129.6875 C 78.550781 129.359375 78.453125 129.039062 78.324219 128.730469 C 78.195312 128.421875 78.035156 128.125 77.847656 127.847656 C 77.660156 127.570312 77.445312 127.3125 77.207031 127.078125 C 76.96875 126.839844 76.707031 126.632812 76.429688 126.445312 C 76.148438 126.261719 75.851562 126.109375 75.539062 125.984375 C 75.226562 125.859375 74.90625 125.765625 74.578125 125.703125 C 74.246094 125.640625 73.914062 125.613281 73.578125 125.617188 L 52.914062 125.617188 C 55.828125 86.441406 87.253906 55.269531 126.546875 52.773438 Z M 131.613281 124.035156 C 127.472656 124.035156 124.09375 127.414062 124.09375 131.558594 C 124.09375 135.699219 127.472656 139.078125 131.613281 139.078125 C 135.757812 139.078125 139.136719 135.699219 139.136719 131.558594 C 139.136719 127.414062 135.757812 124.035156 131.613281 124.035156 Z M 131.613281 124.035156 " fill-opacity="1" fill-rule="nonzero"/></g><g clip-path="url(#e201bea13e)"><g clip-path="url(#71f876536e)"><path fill="#ffffff" d="M 62.042969 61.351562 L 200.457031 61.351562 L 200.457031 199.765625 L 62.042969 199.765625 Z M 62.042969 61.351562 " fill-opacity="1" fill-rule="nonzero"/></g></g></svg>